<svg width="24" height="25" viewBox="0 0 24 25" fill="none" xmlns="http://www.w3.org/2000/svg">
<path d="M14.9253 20.069C15.3709 20.069 15.7321 19.7078 15.7321 19.2622C15.7321 18.8166 15.3709 18.4553 14.9253 18.4553C14.4797 18.4553 14.1184 18.8166 14.1184 19.2622C14.1184 19.7078 14.4797 20.069 14.9253 20.069Z" fill="white"/>
<path d="M19.3324 20.069C19.778 20.069 20.1392 19.7078 20.1392 19.2622C20.1392 18.8166 19.778 18.4553 19.3324 18.4553C18.8868 18.4553 18.5255 18.8166 18.5255 19.2622C18.5255 19.7078 18.8868 20.069 19.3324 20.069Z" fill="white"/>
<path d="M20.5136 24.2058H13.7287C13.1611 24.2041 12.6094 24.0183 12.1562 23.6765C11.7031 23.3346 11.373 22.8551 11.2154 22.3097L10.3448 19.2663C10.2322 18.8773 10.2121 18.4674 10.286 18.0692C10.36 17.6711 10.526 17.2957 10.7708 16.9732C11.0136 16.6489 11.3289 16.3859 11.6915 16.2053C12.0541 16.0247 12.4539 15.9315 12.859 15.9331H21.3842C22.2121 15.9331 22.9729 16.3123 23.4716 16.9732C23.9694 17.6332 24.1251 18.4691 23.8976 19.2655L23.027 22.3105C22.869 22.8556 22.5388 23.3348 22.0857 23.6765C21.6327 24.0181 21.0811 24.2039 20.5136 24.2058ZM12.859 17.5468C12.5419 17.5468 12.2506 17.6921 12.0602 17.9446C11.8697 18.1972 11.8092 18.5175 11.8972 18.8225L12.7678 21.866C12.8888 22.2936 13.285 22.5913 13.7287 22.5913H20.5136C20.9582 22.5913 21.3536 22.2936 21.4746 21.8668L22.3452 18.8217C22.4323 18.5175 22.3734 18.198 22.183 17.9446C21.9926 17.6913 21.7005 17.5468 21.3842 17.5468H12.859Z" fill="white"/>
<path d="M20.3062 17.5468H13.9353V14.3613C13.9353 12.6047 15.3642 11.1766 17.1208 11.1766C18.8773 11.1766 20.3054 12.6056 20.3054 14.3613L20.3062 17.5468ZM15.549 15.933H18.6925V14.3613C18.6925 13.4955 17.9873 12.7903 17.1216 12.7903C16.2558 12.7903 15.5498 13.4955 15.5498 14.3613L15.549 15.933ZM8.87546 9.68231C6.20556 9.68231 4.0343 7.51105 4.0343 4.84115C4.0343 2.17126 6.20556 0 8.87546 0C11.5454 0 13.7166 2.17126 13.7166 4.84115C13.7166 7.51105 11.5454 9.68231 8.87546 9.68231ZM8.87546 1.61372C7.09553 1.61372 5.64802 3.06122 5.64802 4.84115C5.64802 6.62108 7.09553 8.06859 8.87546 8.06859C10.6554 8.06859 12.1029 6.62108 12.1029 4.84115C12.1029 3.06122 10.6554 1.61372 8.87546 1.61372Z" fill="white"/>
<path d="M2.40283 24.1405C0.981141 23.8492 0 22.5284 0 21.0768V17.2104C0 12.7791 3.13788 8.83274 7.51912 8.17192C8.6889 7.99121 9.88301 8.04631 11.0312 8.33397C12.1793 8.62164 13.2584 9.13606 14.2048 9.84696C14.5888 10.1358 14.6429 10.695 14.3161 11.0484C14.1821 11.1942 13.9986 11.2851 13.8013 11.3033C13.6041 11.3214 13.4071 11.2657 13.2486 11.1468C11.8508 10.0909 10.1178 9.57697 8.37036 9.70011C4.52003 9.96395 1.61372 13.3334 1.61372 17.1926V21.0841C1.61372 21.7957 2.09864 22.4565 2.80061 22.5727C3.00548 22.6075 3.21545 22.5971 3.4159 22.5424C3.61635 22.4876 3.80245 22.3898 3.96122 22.2558C4.12 22.1217 4.24763 21.9547 4.33522 21.7662C4.42281 21.5778 4.46826 21.3726 4.46839 21.1648V17.5476C4.46839 17.3336 4.55339 17.1284 4.70471 16.9771C4.85603 16.8258 5.06125 16.7408 5.27525 16.7408C5.48924 16.7408 5.69447 16.8258 5.84578 16.9771C5.9971 17.1284 6.0821 17.3336 6.0821 17.5476V21.1648C6.08157 21.6182 5.97979 22.0658 5.78421 22.4749C5.58863 22.884 5.30418 23.2443 4.95161 23.5294C4.59904 23.8146 4.18725 24.0174 3.7463 24.1231C3.30535 24.2288 2.84636 24.2348 2.40283 24.1405Z" fill="white"/>
<path d="M9.28049 24.2058H3.13464V22.592H9.28049C9.49448 22.592 9.69971 22.677 9.85102 22.8284C10.0023 22.9797 10.0873 23.1849 10.0873 23.3989C10.0873 23.6129 10.0023 23.8181 9.85102 23.9694C9.69971 24.1208 9.49448 24.2058 9.28049 24.2058Z" fill="white"/>
</svg>
