<svg width="26" height="25" viewBox="0 0 26 25" fill="none" xmlns="http://www.w3.org/2000/svg">
<path d="M19.2814 10.8027C19.915 10.3782 20.3692 9.74477 20.5695 8.9973C20.7885 8.18028 20.6774 7.32918 20.2569 6.60076C19.8363 5.87234 19.1548 5.35062 18.3378 5.13166C17.5903 4.9314 16.8146 5.00811 16.1301 5.34449L14.3666 2.2899C13.9912 1.63963 13.3169 1.26062 12.5682 1.27338C11.8175 1.28713 11.1596 1.69142 10.8081 2.35487C10.5613 2.82099 10.3295 3.30518 10.0841 3.81784C9.08384 5.90724 7.95015 8.27542 5.49924 9.69046L2.34992 11.5087C1.26586 12.1346 0.489353 13.1492 0.163368 14.3657C-0.162565 15.5821 0.00258939 16.8491 0.628458 17.9331C1.49856 19.4402 3.08266 20.2837 4.70935 20.2837C5.31426 20.2839 5.91344 20.1665 6.47359 19.9381L8.67522 23.7515C9.13074 24.5404 9.95981 24.9819 10.8113 24.9819C11.2421 24.982 11.6653 24.8684 12.0381 24.6526C12.6058 24.3248 13.0124 23.7937 13.183 23.1572C13.3535 22.5207 13.2669 21.8575 12.9391 21.2898L10.7728 17.5375C13.0536 16.4532 15.4477 16.6372 17.5792 16.8019C18.1463 16.8458 18.682 16.8872 19.2095 16.9065C19.9588 16.9333 20.639 16.5663 21.0261 15.9229C21.4133 15.2797 21.4204 14.5075 21.0449 13.8572L19.2814 10.8026L19.2814 10.8027ZM18.0046 6.37485C18.4896 6.5048 18.8936 6.81353 19.1423 7.24429C19.6223 8.07577 19.3897 9.12601 18.6357 9.68418L16.776 6.46309C17.1609 6.29593 17.5898 6.26365 18.0047 6.37485H18.0046ZM4.70724 18.997C3.52582 18.9969 2.37509 18.3843 1.74315 17.2896C1.28918 16.5034 1.16964 15.5832 1.40666 14.6988C1.64363 13.8144 2.20721 13.0773 2.9935 12.6233L5.58578 11.1267L9.00491 17.0415L6.40949 18.54C5.87284 18.8499 5.28646 18.997 4.70724 18.997ZM11.9398 22.8242C11.8583 23.1286 11.6646 23.3821 11.3946 23.538C10.8337 23.8619 10.1138 23.6691 9.78986 23.1081L7.61026 19.3329L9.64494 18.1581L11.8245 21.9333C11.9804 22.2034 12.0214 22.5197 11.9398 22.8242H11.9398ZM19.9235 15.2593C19.7771 15.5025 19.5411 15.6313 19.2566 15.6203C18.7552 15.602 18.2322 15.5615 17.6784 15.5188C15.3524 15.339 12.737 15.1375 10.1306 16.4172L6.68935 10.464C9.10366 8.84502 10.2373 6.47859 11.245 4.37364C11.4846 3.87308 11.711 3.40027 11.9455 2.95731C12.0784 2.70644 12.3079 2.56543 12.5917 2.56028L12.6078 2.56013C12.8844 2.56013 13.1127 2.69228 13.252 2.93348L19.9305 14.501C20.0724 14.7468 20.07 15.0161 19.9235 15.2593L19.9235 15.2593ZM18.2518 2.62376L19.5807 0.321891C19.7585 0.0140787 20.152 -0.0914083 20.4598 0.0863596C20.7676 0.264076 20.873 0.657657 20.6953 0.965418L19.3664 3.26729C19.3241 3.3405 19.2679 3.40467 19.2009 3.45613C19.1338 3.50759 19.0573 3.54534 18.9756 3.56721C18.894 3.58908 18.8089 3.59465 18.7251 3.58361C18.6413 3.57256 18.5605 3.54511 18.4873 3.50282C18.1795 3.3251 18.0741 2.93152 18.2518 2.62376ZM24.2264 5.05197L21.8689 6.41316C21.7957 6.45544 21.7149 6.48288 21.6311 6.49393C21.5473 6.50497 21.4622 6.4994 21.3805 6.47753C21.2989 6.45565 21.2224 6.41791 21.1553 6.36645C21.0883 6.31499 21.032 6.25083 20.9898 6.17763C20.8121 5.86981 20.9176 5.47623 21.2253 5.29857L23.5829 3.93738C23.8906 3.75961 24.2843 3.86515 24.462 4.17291C24.6397 4.48067 24.5342 4.8743 24.2264 5.05197ZM26 9.68217C26 10.0376 25.7119 10.3257 25.3565 10.3257H22.6985C22.3431 10.3257 22.0549 10.0376 22.0549 9.68217C22.0549 9.32674 22.3431 9.03864 22.6985 9.03864H25.3565C25.7119 9.03864 26 9.32674 26 9.68217Z" fill="white"/>
</svg>
