<svg width="22" height="22" viewBox="0 0 22 22" fill="none" xmlns="http://www.w3.org/2000/svg">
<path d="M20.0601 22H13.7256C13.2113 21.9994 12.7183 21.7948 12.3546 21.4311C11.9909 21.0674 11.7863 20.5744 11.7857 20.0601V12.1542C11.7863 11.6399 11.9909 11.1468 12.3546 10.7832C12.7183 10.4195 13.2113 10.2149 13.7256 10.2143H20.0601C20.5744 10.2149 21.0674 10.4195 21.4311 10.7832C21.7948 11.1468 21.9994 11.6399 22 12.1542V20.0601C21.9994 20.5744 21.7948 21.0674 21.4311 21.4311C21.0674 21.7948 20.5744 21.9994 20.0601 22ZM13.7256 11.7857C13.6772 11.7857 13.6293 11.7952 13.5846 11.8138C13.5399 11.8323 13.4993 11.8594 13.4651 11.8936C13.4309 11.9279 13.4037 11.9685 13.3852 12.0132C13.3667 12.0579 13.3571 12.1058 13.3571 12.1542V20.0601C13.3571 20.2636 13.5221 20.4286 13.7256 20.4286H20.0601C20.2636 20.4286 20.4286 20.2636 20.4286 20.0601V12.1542C20.4286 12.0565 20.3897 11.9628 20.3206 11.8936C20.2515 11.8245 20.1578 11.7857 20.0601 11.7857H13.7256ZM20.0601 8.64286H13.7256C13.2113 8.64223 12.7183 8.43765 12.3546 8.07398C11.9909 7.7103 11.7863 7.21724 11.7857 6.70293V1.93993C11.7863 1.42562 11.9909 0.932553 12.3546 0.568881C12.7183 0.205209 13.2113 0.000623784 13.7256 0H20.0601C20.5744 0.000623784 21.0674 0.205209 21.4311 0.568881C21.7948 0.932553 21.9994 1.42562 22 1.93993V6.70293C21.9994 7.21724 21.7948 7.7103 21.4311 8.07398C21.0674 8.43765 20.5744 8.64223 20.0601 8.64286ZM13.7256 1.57143C13.6772 1.57143 13.6293 1.58096 13.5846 1.59948C13.5399 1.618 13.4993 1.64514 13.4651 1.67936C13.4309 1.71358 13.4037 1.7542 13.3852 1.79891C13.3667 1.84362 13.3571 1.89154 13.3571 1.93993V6.70293C13.3571 6.90643 13.5221 7.07143 13.7256 7.07143H20.0601C20.2636 7.07143 20.4286 6.90643 20.4286 6.70293V1.93993C20.4286 1.8422 20.3897 1.74847 20.3206 1.67936C20.2515 1.61025 20.1578 1.57143 20.0601 1.57143H13.7256ZM8.27436 11.7857H1.93993C1.42562 11.7851 0.932553 11.5805 0.568881 11.2168C0.205209 10.8532 0.000623784 10.3601 0 9.84579V1.93993C0.000623784 1.42562 0.205209 0.932553 0.568881 0.568881C0.932553 0.205209 1.42562 0.000623784 1.93993 0H8.27436C8.78867 0.000623784 9.28173 0.205209 9.6454 0.568881C10.0091 0.932553 10.2137 1.42562 10.2143 1.93993V9.84579C10.2137 10.3601 10.0091 10.8532 9.6454 11.2168C9.28173 11.5805 8.78867 11.7851 8.27436 11.7857ZM1.93993 1.57143C1.8422 1.57143 1.74847 1.61025 1.67936 1.67936C1.61025 1.74847 1.57143 1.8422 1.57143 1.93993V9.84579C1.57143 10.0493 1.73643 10.2143 1.93993 10.2143H8.27436C8.47786 10.2143 8.64286 10.0493 8.64286 9.84579V1.93993C8.64286 1.8422 8.60403 1.74847 8.53493 1.67936C8.46582 1.61025 8.37209 1.57143 8.27436 1.57143H1.93993ZM8.27436 22H1.93993C1.42562 21.9994 0.932553 21.7948 0.568881 21.4311C0.205209 21.0674 0.000623784 20.5744 0 20.0601V15.2971C0.000623784 14.7828 0.205209 14.2897 0.568881 13.926C0.932553 13.5624 1.42562 13.3578 1.93993 13.3571H8.27436C8.78867 13.3578 9.28173 13.5624 9.6454 13.926C10.0091 14.2897 10.2137 14.7828 10.2143 15.2971V20.0601C10.2137 20.5744 10.0091 21.0674 9.6454 21.4311C9.28173 21.7948 8.78867 21.9994 8.27436 22ZM1.93993 14.9286C1.8422 14.9286 1.74847 14.9674 1.67936 15.0365C1.61025 15.1056 1.57143 15.1993 1.57143 15.2971V20.0601C1.57143 20.2636 1.73643 20.4286 1.93993 20.4286H8.27436C8.47786 20.4286 8.64286 20.2636 8.64286 20.0601V15.2971C8.64286 15.1993 8.60403 15.1056 8.53493 15.0365C8.46582 14.9674 8.37209 14.9286 8.27436 14.9286H1.93993Z" fill="white"/>
</svg>
