<svg width="26" height="29" viewBox="0 0 26 29" fill="none" xmlns="http://www.w3.org/2000/svg">
<path fill-rule="evenodd" clip-rule="evenodd" d="M17.6088 23.2188V25.2997C17.6075 25.8578 17.3852 26.3927 16.9905 26.7874C16.5958 27.1821 16.0609 27.4044 15.5028 27.4057H14.4453V28.1683C14.4448 28.3432 14.3751 28.5107 14.2515 28.6343C14.1278 28.758 13.9603 28.8276 13.7855 28.8282H11.4081C11.2332 28.8276 11.0657 28.758 10.9421 28.6343C10.8185 28.5107 10.7488 28.3432 10.7483 28.1683V27.4057H9.69076C9.13261 27.4044 8.59769 27.1821 8.20301 26.7874C7.80834 26.3927 7.58605 25.8578 7.58476 25.2997V23.2188C7.58476 19.5027 3.5628 19.0156 3.5628 12.5967C3.56285 10.2008 4.51466 7.903 6.20886 6.20881C7.90305 4.51463 10.2009 3.56284 12.5968 3.5628C12.7275 3.5628 12.8528 3.61472 12.9453 3.70714C13.0377 3.79955 13.0896 3.9249 13.0896 4.05559C13.0896 4.18629 13.0377 4.31163 12.9453 4.40405C12.8528 4.49646 12.7275 4.54838 12.5968 4.54838C11.5399 4.54841 10.4933 4.75661 9.51685 5.1611C8.54039 5.56559 7.65316 6.15845 6.90583 6.90583C6.15849 7.6532 5.56568 8.54046 5.16124 9.51694C4.7568 10.4934 4.54866 11.54 4.54869 12.5969C4.54869 18.4567 8.25034 18.9474 8.55131 22.7262H17.116C17.2467 22.7262 17.372 22.7781 17.4644 22.8705C17.5569 22.963 17.6088 23.0883 17.6088 23.219V23.2188ZM18.1962 13.5117C17.8727 13.7153 17.4982 13.8233 17.116 13.8233C16.7337 13.8233 16.3593 13.7153 16.0357 13.5117C15.495 13.6998 15.0124 14.0253 14.6354 14.4562C14.2585 14.887 14 15.4086 13.8854 15.9695C14.2996 16.4113 14.8 16.7635 15.3556 17.0042C15.9113 17.2449 16.5104 17.3691 17.116 17.3691C17.7215 17.3691 18.3207 17.2449 18.8763 17.0042C19.432 16.7635 19.9324 16.4113 20.3465 15.9695C20.232 15.4086 19.9735 14.887 19.5965 14.4562C19.2195 14.0253 18.737 13.6998 18.1962 13.5117ZM17.116 10.2606C16.8124 10.2606 16.5156 10.3506 16.2632 10.5193C16.0108 10.6879 15.8141 10.9277 15.6979 11.2081C15.5817 11.4886 15.5513 11.7972 15.6106 12.095C15.6698 12.3927 15.816 12.6662 16.0306 12.8809C16.2453 13.0955 16.5188 13.2417 16.8165 13.3009C17.1143 13.3602 17.4229 13.3298 17.7034 13.2136C17.9838 13.0974 18.2236 12.9007 18.3922 12.6483C18.5609 12.3959 18.6509 12.0991 18.6509 11.7955C18.6509 11.3884 18.4892 10.998 18.2013 10.7102C17.9135 10.4223 17.5231 10.2606 17.116 10.2606ZM25.8661 14.4837C26.0446 13.4622 26.0446 12.4173 25.8661 11.3957H24.2549C24.069 10.5385 23.7302 9.72169 23.2547 8.98459L24.3942 7.84502C23.7986 6.99596 23.0597 6.25708 22.2107 5.66147L21.0721 6.80018C20.3342 6.32586 19.5172 5.98786 18.6599 5.80228V4.18963C17.6383 4.0109 16.5935 4.0109 15.572 4.18963V5.80074C14.7147 5.98673 13.898 6.32557 13.1608 6.80104L12.0212 5.66147C11.1722 6.2571 10.4333 6.99598 9.83773 7.84502L10.9764 8.98367C10.5021 9.72155 10.1641 10.5386 9.97849 11.3959H8.36584C8.18708 12.4174 8.18708 13.4623 8.36584 14.4839H9.97849C10.1641 15.3412 10.5021 16.1582 10.9764 16.896L9.83773 18.0347C10.4333 18.8837 11.1722 19.6226 12.0212 20.2182L13.1608 19.0786C13.8979 19.5541 14.7147 19.893 15.572 20.0789V21.6901C16.5935 21.8688 17.6383 21.8688 18.6599 21.6901V20.0774C19.5172 19.8918 20.3342 19.5538 21.0721 19.0795L22.2107 20.2182C23.0597 19.6225 23.7986 18.8837 24.3942 18.0346L23.2547 16.895C23.7302 16.1579 24.069 15.3412 24.2549 14.4839L25.8661 14.4837ZM20.5961 9.45958C19.9078 8.77126 19.0308 8.3025 18.0761 8.11259C17.1214 7.92268 16.1318 8.02014 15.2325 8.39266C14.3331 8.76517 13.5645 9.396 13.0236 10.2054C12.4828 11.0148 12.1942 11.9663 12.1942 12.9397C12.1942 13.9132 12.4828 14.8647 13.0236 15.6741C13.5645 16.4835 14.3331 17.1143 15.2325 17.4868C16.1318 17.8594 17.1214 17.9568 18.0761 17.7669C19.0308 17.577 19.9078 17.1082 20.5961 16.4199C21.5191 15.4969 22.0376 14.2451 22.0376 12.9397C22.0376 11.6344 21.5191 10.3826 20.5961 9.45958ZM4.6523 21.7699L5.71672 20.7054C5.80649 20.6125 5.85616 20.488 5.85504 20.3588C5.85391 20.2296 5.80209 20.106 5.71072 20.0146C5.61935 19.9232 5.49576 19.8714 5.36655 19.8703C5.23734 19.8692 5.11286 19.9188 5.01992 20.0086L3.95543 21.0729C3.90883 21.1185 3.87173 21.1728 3.84629 21.2328C3.82084 21.2928 3.80755 21.3573 3.80719 21.4225C3.80682 21.4876 3.81939 21.5522 3.84416 21.6125C3.86894 21.6728 3.90542 21.7276 3.95151 21.7737C3.9976 21.8198 4.05237 21.8563 4.11266 21.881C4.17295 21.9058 4.23755 21.9184 4.30272 21.918C4.3679 21.9176 4.43236 21.9044 4.49236 21.8789C4.55237 21.8535 4.60673 21.8164 4.6523 21.7698V21.7699ZM11.728 0.492789C11.728 0.362093 11.7799 0.23675 11.8723 0.144335C11.9647 0.0519187 12.09 0 12.2207 0C12.3514 0 12.4768 0.0519187 12.5692 0.144335C12.6616 0.23675 12.7135 0.362093 12.7135 0.492789V1.9982C12.7135 2.12889 12.6616 2.25424 12.5692 2.34665C12.4768 2.43907 12.3514 2.49099 12.2207 2.49099C12.09 2.49099 11.9647 2.43907 11.8723 2.34665C11.7799 2.25424 11.728 2.12889 11.728 1.9982V0.492789ZM3.42365 4.65224L4.48814 5.71672C4.53364 5.76358 4.58801 5.80093 4.64808 5.82659C4.70815 5.85225 4.77272 5.86571 4.83804 5.86619C4.90336 5.86667 4.96812 5.85416 5.02856 5.82939C5.089 5.80461 5.14391 5.76807 5.1901 5.72188C5.23629 5.6757 5.27284 5.62079 5.29762 5.56035C5.3224 5.49991 5.33491 5.43515 5.33444 5.36983C5.33397 5.30452 5.32051 5.23994 5.29486 5.17987C5.2692 5.1198 5.23186 5.06543 5.185 5.01992L4.12052 3.95543C4.07501 3.90857 4.02064 3.87123 3.96057 3.84557C3.90051 3.81991 3.83593 3.80645 3.77062 3.80597C3.7053 3.80549 3.64054 3.818 3.5801 3.84277C3.51966 3.86754 3.46474 3.90409 3.41855 3.95027C3.37236 3.99646 3.33582 4.05137 3.31104 4.1118C3.28626 4.17224 3.27374 4.237 3.27422 4.30232C3.27469 4.36764 3.28815 4.43221 3.3138 4.49228C3.33945 4.55236 3.3768 4.60673 3.42365 4.65224ZM0.492789 13.4655C0.362093 13.4655 0.23675 13.4135 0.144334 13.3211C0.0519186 13.2287 0 13.1034 0 12.9727C0 12.842 0.0519186 12.7166 0.144334 12.6242C0.23675 12.5318 0.362093 12.4799 0.492789 12.4799H1.99851C2.1292 12.4799 2.25454 12.5318 2.34696 12.6242C2.43938 12.7166 2.4913 12.842 2.4913 12.9727C2.4913 13.1034 2.43938 13.2287 2.34696 13.3211C2.25454 13.4135 2.1292 13.4655 1.99851 13.4655H0.492789Z" fill="white"/>
</svg>
