<svg width="48" height="48" viewBox="0 0 48 48" fill="none" xmlns="http://www.w3.org/2000/svg">
<path d="M36.0009 32.918C36.4151 32.918 36.7509 32.5822 36.7509 32.168C36.7509 31.7539 36.4151 31.4181 36.0009 31.4181C35.5867 31.4181 35.251 31.7539 35.251 32.168C35.251 32.5822 35.5867 32.918 36.0009 32.918Z" fill="#071C1F"/>
<path d="M40.4774 12.4355C40.4276 12.2429 40.3035 12.078 40.1323 11.9768C39.9611 11.8755 39.7567 11.8463 39.564 11.8956L38.0641 12.281C37.9685 12.3053 37.8786 12.3483 37.7997 12.4074C37.7207 12.4665 37.6541 12.5406 37.6038 12.6254C37.5535 12.7103 37.5205 12.8043 37.5065 12.9019C37.4926 12.9996 37.4981 13.099 37.5226 13.1946C37.5472 13.2901 37.5904 13.3799 37.6497 13.4587C37.709 13.5375 37.7833 13.6039 37.8683 13.654C37.9533 13.704 38.0473 13.7369 38.145 13.7505C38.2427 13.7642 38.3421 13.7585 38.4376 13.7337L39.9375 13.3482C40.3379 13.2455 40.5794 12.8367 40.4774 12.4355Z" fill="#071C1F"/>
<path d="M47.2501 26.1686H44.2503C44.0514 26.1686 43.8606 26.2476 43.72 26.3882C43.5794 26.5289 43.5003 26.7196 43.5003 26.9185V37.4177C43.5003 37.8309 43.1644 38.1676 42.7504 38.1676H41.2505V35.9178C41.2505 35.0906 40.5778 34.4179 39.7506 34.4179H38.9789C39.0637 34.3054 39.1559 34.1997 39.2287 34.0767C39.6996 33.2871 39.8609 32.351 39.6815 31.4493C39.5021 30.5476 38.9948 29.7445 38.2575 29.1953C39.8684 28.4514 40.7758 26.644 40.3198 24.8644L40.1331 24.1385L40.8598 23.9517C42.6057 23.5025 44.0726 22.4016 44.9905 20.8492C45.9084 19.2968 46.1656 17.4812 45.7179 15.7354L44.785 12.1034L46.9643 11.5439C47.3648 11.4404 47.6063 11.0317 47.5043 10.6313L46.9448 8.45192C45.4 2.44413 39.2549 -1.18784 33.2494 0.354792L21.6283 3.33956L21.0688 1.16098C21.0185 0.968736 20.8943 0.804145 20.7232 0.703022C20.5522 0.601899 20.3481 0.572428 20.1554 0.621021L14.3441 2.11341C14.2487 2.13777 14.1591 2.1808 14.0804 2.24001C14.0018 2.29922 13.9357 2.37344 13.8859 2.45838C13.8355 2.54309 13.8024 2.63694 13.7885 2.73451C13.7746 2.83207 13.7802 2.93143 13.8049 3.02684L14.3643 5.20542L0.563144 8.74965C0.370742 8.79945 0.205905 8.92344 0.104709 9.09449C0.00351279 9.26554 -0.0258003 9.46972 0.0231851 9.66233L0.395906 11.1157C0.587661 11.8586 0.966427 12.54 1.49612 13.095C2.02582 13.6501 2.68881 14.0602 3.42192 14.2865C3.48717 16.2221 3.81189 18.3834 4.3676 20.5485C5.16104 23.636 6.33995 26.4393 7.68685 28.4409C9.26323 30.7822 10.6131 31.3927 11.5925 31.3927C11.801 31.3927 11.9938 31.3649 12.1678 31.3207C12.2465 31.3004 12.3267 31.2734 12.4085 31.2427C12.4497 31.2389 12.4902 31.2374 12.5315 31.2269L20.1576 29.2681H20.1591L28.5112 27.1232L28.6972 27.8492C28.9054 28.6549 29.3751 29.3687 30.0327 29.8786C30.6903 30.3886 31.4986 30.6658 32.3307 30.6667C32.4169 30.6667 32.5047 30.6562 32.5909 30.6502C32.2405 31.4179 32.1622 32.2821 32.369 33.1003C32.4957 33.5945 32.7252 34.0332 33.0154 34.4172H32.2512C31.424 34.4172 30.7513 35.0899 30.7513 35.9171V38.1669C30.7513 38.9941 31.424 39.6668 32.2512 39.6668H33.0012V40.4167C33.0012 42.4843 34.6833 44.1664 36.7509 44.1664H42.0005V47.1662C42.0005 47.3651 42.0795 47.5558 42.2201 47.6965C42.3608 47.8371 42.5515 47.9161 42.7504 47.9161H47.2501C47.449 47.9161 47.6397 47.8371 47.7803 47.6965C47.921 47.5558 48 47.3651 48 47.1662V26.9185C48 26.7196 47.921 26.5289 47.7803 26.3882C47.6397 26.2476 47.449 26.1686 47.2501 26.1686ZM19.8022 2.2604L20.1749 3.71303L15.817 4.8327L15.4443 3.38006L19.8022 2.2604ZM13.2117 26.5045C13.0414 28.3981 12.4985 29.6873 11.7935 29.868C11.0901 30.0518 9.99292 29.1811 8.931 27.604C7.6771 25.7403 6.57168 23.102 5.82099 20.1758C5.31553 18.2079 5.0178 16.2551 4.93756 14.4905C5.25368 14.4782 5.56764 14.4327 5.87424 14.3547L6.41644 14.2152C6.46144 15.5426 6.66168 17.4227 7.27288 19.8023C8.28305 23.7335 9.6247 25.9998 10.3349 27.001C10.4224 27.1251 10.5457 27.2195 10.6882 27.2718C10.8308 27.324 10.9859 27.3316 11.1328 27.2935C11.2797 27.2556 11.4116 27.1742 11.5112 27.0599C11.6108 26.9455 11.6734 26.8037 11.6908 26.653C11.831 25.4344 11.915 22.8036 10.9049 18.8694C10.3956 16.8888 9.72069 15.0784 8.9535 13.5635L10.4406 13.1818C11.2011 14.7454 11.8633 16.5745 12.3575 18.4966C13.1104 21.4229 13.4134 24.2667 13.2117 26.5045ZM7.95458 14.9179C8.43529 15.9686 8.97975 17.4017 9.45296 19.2428C9.91868 21.0577 10.1392 22.5658 10.2269 23.7627C9.72669 22.6716 9.19198 21.2437 8.72627 19.4296C8.25605 17.5997 8.04157 16.0856 7.95458 14.9179ZM19.7849 27.8154L14.1483 29.2628C14.4063 28.6029 14.6066 27.7494 14.7063 26.638C14.9223 24.2345 14.6043 21.2107 13.8116 18.1232C13.3212 16.2146 12.6665 14.3945 11.918 12.8023L18.4283 11.13C19.1895 12.6958 19.8539 14.516 20.3489 16.4433C22.0235 22.9686 21.1498 27.4645 19.7849 27.8154ZM28.8645 25.4839L22.1195 27.2162C23.1237 24.6484 22.8537 20.1675 21.8015 16.0706C21.3096 14.1575 20.6549 12.3441 19.9057 10.7512L21.1288 10.437C21.8992 10.24 22.7163 10.3566 23.4008 10.7612C24.0854 11.1658 24.5815 11.8254 24.7803 12.5954C24.9256 13.1684 25.1833 13.7069 25.5384 14.1796C25.8934 14.6523 26.3388 15.0499 26.8486 15.3491C27.3568 15.6513 27.9198 15.8498 28.5051 15.933C29.0904 16.0163 29.6864 15.9828 30.2586 15.8344L35.4385 14.504C35.8389 14.4005 36.0804 13.9917 35.9784 13.5913C35.9286 13.3987 35.8045 13.2337 35.6333 13.1325C35.4621 13.0313 35.2577 13.0021 35.065 13.0513L29.8851 14.3817C29.5037 14.4811 29.1064 14.5036 28.7162 14.4482C28.326 14.3927 27.9507 14.2602 27.6121 14.0585C27.2722 13.8589 26.9754 13.5939 26.7388 13.2788C26.5022 12.9636 26.3305 12.6046 26.2337 12.2226C25.9349 11.0678 25.1905 10.0785 24.1636 9.47148C23.1368 8.86449 21.9111 8.68933 20.7553 8.98438L5.50076 12.9021C4.73029 13.0989 3.91321 12.9821 3.2287 12.5774C2.54419 12.1726 2.04813 11.513 1.84929 10.743L1.66256 10.0163L15.463 6.47207L21.2751 4.97969L21.2773 4.97894L33.6229 1.80818C38.826 0.468783 44.1535 3.61929 45.4907 8.82539L45.8642 10.2788L43.6856 10.8382H43.6841L42.2989 11.1937C42.1063 11.2433 41.9412 11.3674 41.8399 11.5387C41.7387 11.71 41.7096 11.9144 41.759 12.1071C41.8632 12.5091 42.2734 12.7476 42.6724 12.6471L43.3316 12.4776L44.2638 16.1096C44.9845 18.9129 43.2889 21.7799 40.4856 22.4998L39.0344 22.8726H39.0322L39.0307 22.8733L28.8645 25.4839ZM32.8894 29.0956C32.3116 29.2428 31.699 29.1551 31.1857 28.8516C30.6723 28.5482 30.3002 28.0537 30.1506 27.4765L29.9646 26.7505L38.6812 24.5119L38.868 25.2379C39.0155 25.8158 38.9279 26.4287 38.6242 26.9422C38.3206 27.4556 37.8257 27.8276 37.2481 27.9767L32.8894 29.0956ZM37.9373 33.3133C37.7877 33.5681 37.5889 33.7907 37.3525 33.9681C37.1161 34.1455 36.8469 34.2742 36.5604 34.3467C36.2744 34.4208 35.9767 34.4375 35.6842 34.396C35.3918 34.3544 35.1105 34.2553 34.8565 34.1045C34.3391 33.7985 33.9716 33.3095 33.8223 32.7276C33.6731 32.1456 33.7586 31.5404 34.0646 31.0229C34.2142 30.7681 34.413 30.5455 34.6493 30.3681C34.8857 30.1907 35.155 30.062 35.4415 29.9895C35.7275 29.9155 36.0253 29.8987 36.3179 29.9401C36.6104 29.9816 36.8919 30.0804 37.1461 30.231C37.401 30.3807 37.6236 30.5795 37.8011 30.8158C37.9786 31.0522 38.1075 31.3214 38.1803 31.6079C38.2543 31.8941 38.2709 32.1922 38.2292 32.4849C38.1875 32.7776 38.0883 33.0591 37.9373 33.3133ZM33.7511 38.1676H32.2512V35.9178H39.7506L39.7514 38.1676H33.7511ZM46.5001 46.417H43.5003V44.1672H46.5001V46.417ZM46.5001 42.6673H36.7509C35.5105 42.6673 34.501 41.6579 34.501 40.4175V39.6675H42.7504C43.9908 39.6675 45.0002 38.6581 45.0002 37.4177V27.6684H46.5001V42.6673Z" fill="#071C1F"/>
</svg>
