<svg width="50" height="50" viewBox="0 0 50 50" fill="none" xmlns="http://www.w3.org/2000/svg">
<path d="M21.5479 24.7914L20.4863 23.6455C23.0326 21.2861 26.9663 21.2861 29.5126 23.6455L28.451 24.7914C26.5036 22.9871 23.4953 22.9871 21.5479 24.7914Z" fill="#071C1F"/>
<path d="M39.0625 43.7501H46.875V42.1876H42.1875V0H7.8125V42.1876H3.125V43.7501H18.2671L19.0483 45.3126H0V46.8751H19.8296L20.1282 47.4721C20.5058 48.2335 21.0892 48.8739 21.8121 49.3208C22.5351 49.7676 23.3688 50.0029 24.2188 50.0001H36.3281L38.6719 46.8751H50V45.3126H39.0625V43.7501ZM37.5 45.3126V45.8337L35.5469 48.4376H24.2188C23.6592 48.4396 23.1104 48.2848 22.6344 47.9906C22.1584 47.6965 21.7744 47.2749 21.526 46.7735L18.1617 40.046C18.0756 39.8736 18.0262 39.6852 18.0166 39.4927C18.007 39.3002 18.0374 39.1078 18.1059 38.9277C18.1744 38.7476 18.2796 38.5836 18.4146 38.4461C18.5497 38.3087 18.7118 38.2007 18.8907 38.1291C19.056 38.0627 19.2325 38.0285 19.4111 38.028C19.6503 38.0282 19.8854 38.0902 20.0936 38.2079C20.3017 38.3257 20.476 38.4953 20.5993 38.7002L22.7124 42.1876H24.2188V27.7344C24.2188 27.0871 24.7433 26.5626 25.3906 26.5626C26.038 26.5626 26.5625 27.0871 26.5625 27.7344V37.5001H28.125V35.1563H29.6875C29.8947 35.1563 30.0934 35.2386 30.2399 35.3851C30.3864 35.5317 30.4688 35.7304 30.4688 35.9376V39.0626H32.0312V36.7188H33.5938C33.8009 36.7188 33.9997 36.8011 34.1462 36.9476C34.2927 37.0942 34.375 37.2929 34.375 37.5001V40.6251H35.9375V38.2813H36.7188C36.9259 38.2813 37.1247 38.3636 37.2712 38.5102C37.4177 38.6567 37.5 38.8554 37.5 39.0626V45.3126ZM31.25 20.3125V29.6876H28.125V27.7344C28.125 26.2242 26.9009 25.0001 25.3906 25.0001C23.8804 25.0001 22.6562 26.2242 22.6562 27.7344V29.6876H18.75V20.3125H31.25ZM20.3125 18.75V15.625C20.3125 13.0364 22.4113 10.9375 25 10.9375C27.5891 10.9375 29.6875 13.0364 29.6875 15.625V18.75H20.3125ZM36.7188 36.7188H35.804C35.6418 36.2622 35.3424 35.8668 34.9466 35.5871C34.5509 35.3073 34.0784 35.1569 33.5938 35.1563H31.8978C31.7356 34.6996 31.4361 34.3043 31.0404 34.0246C30.6447 33.7448 30.1721 33.5944 29.6875 33.5938H28.125V31.2501H32.8125V18.75H31.25V15.625C31.25 12.1731 28.452 9.37502 25 9.37502C21.548 9.37502 18.75 12.1731 18.75 15.625V18.75H17.1875V31.2501H22.6562V39.079L21.936 37.8907C21.112 36.5387 19.3695 36.0757 17.9832 36.8405C16.597 37.6054 16.0595 39.3269 16.7641 40.7445L17.4857 42.1876H12.5V26.5626H10.9375V42.1876H9.375V1.5625H40.625V42.1876H39.0625V39.0626C39.0625 37.7682 38.0131 36.7188 36.7188 36.7188Z" fill="#071C1F"/>
<path d="M13.2812 17.1875C11.9869 17.1875 10.9375 18.2369 10.9375 19.5313V22.6563C10.9375 23.9506 11.9869 25 13.2812 25C14.5756 25 15.625 23.9506 15.625 22.6563V19.5313C15.625 18.2369 14.5756 17.1875 13.2812 17.1875ZM14.0625 22.6563C14.0625 22.8635 13.9802 23.0622 13.8337 23.2087C13.6872 23.3552 13.4885 23.4375 13.2812 23.4375C13.074 23.4375 12.8753 23.3552 12.7288 23.2087C12.5823 23.0622 12.5 22.8635 12.5 22.6563V19.5313C12.5 19.3241 12.5823 19.1253 12.7288 18.9788C12.8753 18.8323 13.074 18.75 13.2812 18.75C13.4885 18.75 13.6872 18.8323 13.8337 18.9788C13.9802 19.1253 14.0625 19.3241 14.0625 19.5313V22.6563Z" fill="#071C1F"/>
<path d="M39.0625 3.125H10.9375V15.625H12.5V4.6875H37.5V35.1563H39.0625V3.125ZM0 42.1876H1.5625V43.7501H0V42.1876ZM48.4375 42.1876H50V43.7501H48.4375V42.1876Z" fill="#071C1F"/>
</svg>
