<svg width="36" height="54" viewBox="0 0 36 54" fill="none" xmlns="http://www.w3.org/2000/svg">
<path d="M36 18.0111C36 8.08118 27.9188 0 18 0C8.08118 0 0 8.08118 0 18.0111C0 23.0037 2.00369 27.6421 5.62362 31.0738C7.78229 33.1218 9.07749 36.0221 9.26569 39.1218C8.07011 39.3764 7.17343 40.4502 7.17343 41.7233C7.17343 43.0738 8.19188 44.1698 9.48709 44.3469C9.35424 44.6679 9.27676 45.0111 9.27676 45.3764C9.27676 46.8487 10.4723 48.0443 11.9447 48.0443H12.1661C12.5756 50.9114 15.0221 53.1365 18 53.1365C20.9779 53.1365 23.4244 50.9114 23.834 48.0443H24.0554C25.5277 48.0443 26.7233 46.8487 26.7233 45.3764C26.7233 45.0111 26.6458 44.6679 26.5129 44.3469C27.8081 44.1698 28.8266 43.0738 28.8266 41.7233C28.8266 40.4502 27.9299 39.3875 26.7454 39.1218C26.9336 36.0221 28.2288 33.1218 30.3875 31.0627C34.0074 27.631 36 22.9926 36 18.0111ZM18 51.476C15.9299 51.476 14.214 49.9926 13.8155 48.0443H22.1734C21.786 49.9926 20.0701 51.476 18 51.476ZM27.1661 41.7233C27.1661 42.2657 26.7122 42.7196 26.1587 42.7196H9.84133C9.28782 42.7196 8.83395 42.2657 8.83395 41.7233C8.83395 41.1697 9.28782 40.7159 9.84133 40.7159H26.1587C26.7122 40.7159 27.1661 41.1697 27.1661 41.7233ZM25.0738 39.0554H10.9483C10.738 35.524 9.24354 32.214 6.76384 29.8672C5.14534 28.3468 3.85703 26.5096 2.97907 24.4699C2.10111 22.4302 1.65229 20.2317 1.66052 18.0111C1.66052 8.98893 8.98893 1.66052 18 1.66052C27.0111 1.66052 34.3395 8.98893 34.3395 18.0111C34.3395 22.5387 32.524 26.7454 29.2472 29.8561C26.7675 32.214 25.2731 35.524 25.0738 39.0554Z" fill="#FF5A3C"/>
<path d="M27.4871 19.6051C27.6532 18.5978 27.6642 17.7786 27.4982 16.428L28.6606 15.4206C29.2805 14.8782 29.4355 13.9705 29.0259 13.262L27.6642 10.904C27.2546 10.1845 26.3801 9.85238 25.6052 10.1291L24.0886 10.6051C23.2616 9.93186 22.3356 9.39041 21.3432 8.99998L21.0665 7.50551C20.9115 6.68632 20.1919 6.09961 19.3617 6.09961H16.6384C15.8192 6.09961 15.0997 6.68633 14.9447 7.49444L14.5904 9.05533C13.6273 9.42064 12.7307 9.94094 11.8451 10.6273L10.3949 10.1291C9.60889 9.86345 8.74542 10.1845 8.33583 10.893L6.9742 13.2509C6.56461 13.9705 6.71959 14.8782 7.33952 15.4206L8.51295 16.5055C8.32476 17.6236 8.35797 18.4539 8.50188 19.6716L7.33952 20.6789C6.71959 21.2214 6.56461 22.1291 6.9742 22.8487L8.33583 25.2066C8.74542 25.9151 9.61996 26.2472 10.3949 25.9705L11.9115 25.4944C12.7196 26.1587 13.6163 26.6789 14.6569 27.0996L14.9336 28.5941C15.0886 29.4133 15.8082 30 16.6384 30H19.3617C20.1808 30 20.9004 29.4133 21.0554 28.6051L21.4096 27.0443C22.3727 26.6789 23.2694 26.1586 24.155 25.4723L25.6052 25.9705C26.3801 26.2361 27.2546 25.9151 27.6642 25.2066L29.0259 22.8487C29.4355 22.1291 29.2805 21.2214 28.6606 20.6789L27.4871 19.6051ZM22.9816 18.1328C22.9598 19.4401 22.4256 20.6865 21.4938 21.6037C20.5621 22.521 19.3075 23.0356 18 23.0369C15.2546 23.0369 13.0185 20.8007 13.0185 18.0553V17.9557C13.0628 15.2546 15.2879 13.0627 18 13.0627C20.7454 13.0627 22.9816 15.2989 22.9816 18.0443V18.1328Z" fill="#FF5A3C"/>
</svg>
