<svg width="52" height="47" viewBox="0 0 52 47" fill="none" xmlns="http://www.w3.org/2000/svg">
<path d="M51.349 42.982H49.506V33.9442C50.4052 33.6643 51.0642 32.8343 51.0642 31.8444V21.2756C51.0642 20.2163 50.3139 19.3303 49.3172 19.1169V9.28293H50.4132C50.4987 9.28298 50.5834 9.26616 50.6624 9.23346C50.7414 9.20075 50.8132 9.15279 50.8737 9.09232C50.9341 9.03185 50.9821 8.96006 51.0148 8.88104C51.0475 8.80203 51.0643 8.71734 51.0642 8.63183V4.75925C51.0643 4.67374 51.0474 4.58906 51.0147 4.51005C50.982 4.43104 50.9341 4.35925 50.8736 4.29879C50.8131 4.23833 50.7413 4.19039 50.6623 4.15769C50.5833 4.125 50.4986 4.10821 50.4131 4.10827H38.8377V0.651966C38.8377 0.552118 38.8147 0.453606 38.7705 0.364082C38.7263 0.274559 38.6621 0.196435 38.5827 0.135781C38.4225 0.0118551 38.2115 -0.0313985 38.0183 0.0232981L15.865 5.95639C15.7265 5.99336 15.6042 6.07504 15.5169 6.18873C15.4296 6.30241 15.3824 6.44174 15.3824 6.58506V9.2827C14.2622 9.57392 13.4289 10.5849 13.4289 11.7953V25.0486C13.4289 26.2592 14.2623 27.2701 15.3824 27.5614V42.9821H7.36734V39.1043C9.87079 38.7831 11.8129 36.6436 11.8129 34.0542C11.8129 31.2437 9.52682 28.957 6.71624 28.957C3.90566 28.957 1.61996 31.2436 1.61996 34.0541C1.61996 36.6435 3.56203 38.7829 6.06549 39.1041V42.982H0.650981C0.56549 42.9819 0.480828 42.9988 0.401834 43.0314C0.322841 43.0641 0.251064 43.1121 0.190608 43.1725C0.130151 43.233 0.0821996 43.3047 0.049494 43.3837C0.0167884 43.4627 -2.9992e-05 43.5474 9.06543e-08 43.6329V46.3099C-4.50468e-05 46.3954 0.016766 46.4801 0.049472 46.5591C0.082178 46.6381 0.130138 46.7099 0.190608 46.7704C0.251078 46.8308 0.322873 46.8788 0.401887 46.9115C0.480901 46.9441 0.565585 46.9609 0.651096 46.9609H51.349C51.4345 46.9609 51.5192 46.9441 51.5982 46.9114C51.6772 46.8787 51.749 46.8308 51.8094 46.7703C51.8699 46.7099 51.9178 46.6381 51.9505 46.5591C51.9832 46.4801 52 46.3954 52 46.3099V43.6329C52 43.5474 51.9832 43.4627 51.9505 43.3837C51.9178 43.3047 51.8698 43.2329 51.8093 43.1725C51.7489 43.112 51.6771 43.0641 51.5981 43.0314C51.5191 42.9987 51.4344 42.9819 51.3489 42.982H51.349ZM38.8375 5.41011H49.7622V7.98097H38.8376L38.8375 5.41011ZM38.8375 9.28293H48.0153V19.0665H38.8377L38.8375 9.28293ZM38.2864 20.3684H48.8551C49.3555 20.3684 49.7622 20.7753 49.7622 21.2756V31.8444C49.7622 32.3446 49.3555 32.7514 48.8551 32.7514H38.2865C37.7861 32.7514 37.3786 32.3446 37.3786 31.8444V21.2756C37.3786 20.7753 37.786 20.3684 38.2864 20.3684ZM16.6844 7.08465L37.5356 1.49988V19.2065C36.6874 19.5154 36.0766 20.3221 36.0766 21.2754V31.8442C36.0766 33.0622 37.0677 34.0533 38.2864 34.0533H48.2042V42.9819H31.8925V32.572C31.8925 32.4865 31.8757 32.4018 31.843 32.3228C31.8103 32.2438 31.7623 32.172 31.7019 32.1116C31.6414 32.0511 31.5696 32.0032 31.4906 31.9705C31.4116 31.9378 31.3269 31.921 31.2414 31.921H20.0148C19.9293 31.921 19.8446 31.9378 19.7656 31.9705C19.6866 32.0032 19.6148 32.0511 19.5543 32.1116C19.4938 32.1721 19.4459 32.2439 19.4132 32.3229C19.3805 32.4019 19.3637 32.4866 19.3637 32.5721V42.9819H16.6844V27.6536H29.2874C30.724 27.6536 31.8925 26.4851 31.8925 25.0484V11.7952C31.8925 10.3584 30.7242 9.19002 29.2874 9.19002H16.6843L16.6844 7.08465ZM30.5906 33.2231V42.982H20.6659V33.2231H30.5906ZM14.7309 25.0485V11.7952C14.7309 11.0769 15.315 10.492 16.0334 10.492H29.2874C30.0058 10.492 30.5906 11.0769 30.5906 11.7953V25.0485C30.5906 25.7669 30.0058 26.3518 29.2873 26.3518H16.0333C15.3149 26.3518 14.7308 25.7669 14.7308 25.0485H14.7309ZM2.92192 34.054C2.92192 31.9612 4.62438 30.2589 6.71635 30.2589C8.80833 30.2589 10.511 31.9612 10.511 34.0541C10.511 35.9238 9.1499 37.4785 7.36745 37.7886V36.1735L9.7844 33.8741C9.84635 33.8152 9.89609 33.7446 9.93076 33.6664C9.96544 33.5883 9.98438 33.5041 9.98651 33.4186C9.98864 33.3331 9.9739 33.2481 9.94315 33.1683C9.9124 33.0885 9.86623 33.0156 9.80729 32.9536C9.68804 32.8289 9.52427 32.7565 9.35178 32.7522C9.17929 32.7479 9.01212 32.8121 8.88683 32.9307L6.72185 34.9907L5.44826 33.7495C5.19194 33.499 4.77817 33.5029 4.52769 33.7609C4.46797 33.8221 4.42088 33.8945 4.38913 33.9738C4.35739 34.0532 4.34159 34.1381 4.34265 34.2236C4.34372 34.3091 4.36162 34.3935 4.39533 34.4721C4.42904 34.5507 4.47791 34.6218 4.53913 34.6815L6.06549 36.1689V37.7886C4.28293 37.4785 2.92192 35.9238 2.92192 34.0541V34.054ZM50.6981 45.6589H1.30196V44.2838H50.698V45.6589H50.6981Z" fill="#071C1F"/>
<path d="M17.9876 23.7459H27.3339C27.4194 23.746 27.504 23.7291 27.583 23.6964C27.662 23.6637 27.7338 23.6158 27.7942 23.5553C27.8547 23.4949 27.9026 23.4231 27.9353 23.3441C27.968 23.2651 27.9848 23.1804 27.9848 23.0949V13.7494C27.9848 13.6639 27.968 13.5792 27.9353 13.5002C27.9026 13.4212 27.8547 13.3495 27.7942 13.289C27.7338 13.2285 27.662 13.1806 27.583 13.1479C27.504 13.1152 27.4194 13.0984 27.3339 13.0984H17.9876C17.9021 13.0983 17.8174 13.1151 17.7384 13.1478C17.6594 13.1805 17.5876 13.2285 17.5271 13.289C17.4666 13.3494 17.4187 13.4212 17.386 13.5003C17.3533 13.5793 17.3365 13.664 17.3365 13.7495V23.0949C17.3365 23.1804 17.3533 23.2651 17.386 23.3441C17.4187 23.4231 17.4667 23.4949 17.5272 23.5554C17.5876 23.6159 17.6594 23.6638 17.7384 23.6965C17.8175 23.7292 17.9021 23.746 17.9876 23.7459ZM18.6386 14.4004H26.6829V22.4441H18.6386V14.4004ZM39.8447 30.9371H47.2971C47.3826 30.9372 47.4673 30.9204 47.5463 30.8876C47.6253 30.8549 47.6971 30.807 47.7575 30.7465C47.818 30.686 47.8659 30.6142 47.8986 30.5352C47.9313 30.4562 47.9481 30.3716 47.948 30.2861V22.8338C47.9481 22.7483 47.9313 22.6636 47.8986 22.5846C47.8659 22.5056 47.818 22.4338 47.7575 22.3734C47.6971 22.3129 47.6253 22.2649 47.5463 22.2322C47.4673 22.1995 47.3826 22.1827 47.2971 22.1827H39.8447C39.7592 22.1827 39.6745 22.1995 39.5955 22.2322C39.5165 22.2649 39.4447 22.3129 39.3842 22.3733C39.3237 22.4338 39.2758 22.5056 39.2431 22.5846C39.2104 22.6636 39.1936 22.7483 39.1937 22.8338V30.2863C39.1936 30.3718 39.2104 30.4565 39.2431 30.5355C39.2758 30.6145 39.3238 30.6862 39.3842 30.7467C39.4447 30.8072 39.5165 30.8551 39.5955 30.8878C39.6745 30.9205 39.7592 30.9373 39.8447 30.9373V30.9371ZM40.4956 23.4847H46.6461V29.6352H40.4956V23.4847ZM23.8597 37.2574H27.3967C27.7566 37.2574 28.0478 36.9662 28.0478 36.6064C28.0478 36.2465 27.7566 35.9554 27.3967 35.9554H23.8597C23.4999 35.9554 23.2087 36.2466 23.2087 36.6065C23.2087 36.9664 23.4999 37.2574 23.8597 37.2574ZM23.8597 40.2502H27.3967C27.7566 40.2502 28.0478 39.9591 28.0478 39.5992C28.0478 39.2394 27.7566 38.9484 27.3967 38.9484H23.8597C23.4999 38.9484 23.2087 39.2395 23.2087 39.5992C23.2087 39.959 23.4999 40.2503 23.8597 40.2503V40.2502Z" fill="#071C1F"/>
</svg>
