<svg width="36" height="55" viewBox="0 0 36 55" fill="none" xmlns="http://www.w3.org/2000/svg">
<path d="M18.1002 4.23575C17.5147 4.23151 17.0372 4.70268 17.0329 5.28714C17.0287 5.8716 17.4988 6.34912 18.0843 6.35335C18.6688 6.35759 19.1463 5.88748 19.1505 5.30302C19.1548 4.71856 18.6847 4.24104 18.1002 4.23575ZM18.052 10.5885C13.9639 10.5594 10.6158 13.8575 10.5849 17.9444C10.5541 22.031 13.854 25.3807 17.9409 25.4115L17.9976 25.4117C22.0584 25.4117 25.3773 22.1235 25.408 18.0556C25.4388 13.9691 22.139 10.6193 18.052 10.5885ZM17.9974 23.2942L17.9567 23.294C15.0375 23.272 12.6804 20.8793 12.7024 17.9603C12.7243 15.0544 15.0948 12.7057 17.9955 12.7057L18.0362 12.706C20.9554 12.728 23.3125 15.1207 23.2905 18.0397C23.2684 20.9456 20.8981 23.2942 17.9974 23.2942ZM22.6161 5.03874C22.0653 4.84329 21.4598 5.13181 21.2643 5.68302C21.069 6.23424 21.3575 6.83934 21.9086 7.0348C26.5723 8.6877 29.6804 13.1295 29.6432 18.0875C29.6388 18.6722 30.1093 19.1498 30.694 19.1543H30.7022C31.2831 19.1543 31.7563 18.6854 31.7608 18.1034C31.8048 12.2433 28.1298 6.99298 22.6161 5.03874Z" fill="#071C1F"/>
<path d="M24.4929 39.8578C31.5353 30.7929 35.9364 26.0658 35.9958 18.135C36.0704 8.15649 27.9724 0 17.9947 0C8.13342 0 0.0719072 7.98634 -0.00305605 17.865C-0.0636196 26.0109 4.41925 30.7314 11.5103 39.8563C4.45599 40.9105 -0.00305605 43.5593 -0.00305605 46.7991C-0.00305605 48.9693 2.00295 50.9168 5.64555 52.2826C8.96098 53.5259 13.3473 54.2106 17.9964 54.2106C22.6455 54.2106 27.0318 53.5259 30.3472 52.2826C33.9898 50.9167 35.9958 48.9692 35.9958 46.799C35.9958 43.561 31.5409 40.9128 24.4929 39.8578ZM2.11444 17.881C2.18051 9.16394 9.29302 2.11761 17.9949 2.11761C26.7998 2.11761 33.944 9.3162 33.8783 18.1192C33.822 25.6509 29.1546 30.2924 21.703 40.0061C20.3739 41.7379 19.1533 43.3753 17.998 44.9769C16.846 43.3743 15.6498 41.7663 14.3007 40.0055C6.54119 29.885 2.05706 25.5943 2.11444 17.881ZM17.9964 52.0931C8.90646 52.0931 2.11444 49.2982 2.11444 46.7991C2.11444 44.9458 6.17474 42.6045 13.0017 41.7938C14.5108 43.7739 15.8339 45.5728 17.1316 47.41C17.2292 47.5483 17.3587 47.6612 17.509 47.7391C17.6593 47.817 17.8261 47.8578 17.9954 47.8579H17.9964C18.1656 47.8579 18.3323 47.8174 18.4826 47.7397C18.6328 47.662 18.7623 47.5494 18.8602 47.4114C20.1455 45.5981 21.5048 43.7548 23.001 41.795C29.8216 42.6066 33.8783 44.947 33.8783 46.7992C33.8782 49.2982 27.0863 52.0931 17.9964 52.0931Z" fill="#071C1F"/>
</svg>
