<svg width="50" height="56" viewBox="0 0 50 56" fill="none" xmlns="http://www.w3.org/2000/svg">
<path d="M48.8564 29.5941C48.4934 29.231 48.0623 28.943 47.588 28.7464C47.1136 28.5499 46.6052 28.4488 46.0917 28.4488C45.5783 28.4488 45.0698 28.5499 44.5955 28.7464C44.1211 28.943 43.6901 29.231 43.327 29.5941L36.6347 36.2864C36.3411 35.7428 35.9063 35.2885 35.3763 34.9711C34.8462 34.6537 34.2404 34.4851 33.6226 34.4829H23.8328C22.99 33.4628 21.9434 32.6301 20.7599 32.0381C19.5765 31.4461 18.2825 31.1079 16.9607 31.0451C15.639 30.9824 14.3187 31.1965 13.0845 31.6738C11.8504 32.151 10.7295 32.8809 9.79388 33.8166L6.03608 37.5744L4.92141 36.4597C4.75975 36.2981 4.54051 36.2073 4.31192 36.2073C4.08333 36.2073 3.86409 36.2981 3.70243 36.4597L0.254114 39.908C0.0924991 40.0697 0.00170898 40.2889 0.00170898 40.5175C0.00170898 40.7461 0.0924991 40.9653 0.254114 41.127L14.0474 54.9203C14.209 55.0819 14.4283 55.1727 14.6569 55.1727C14.8855 55.1727 15.1047 55.0819 15.2664 54.9203L18.7147 51.4719C18.8763 51.3103 18.9671 51.091 18.9671 50.8624C18.9671 50.6339 18.8763 50.4146 18.7147 50.253L17.6 49.1383L18.5673 48.171C19.0533 47.6883 19.7098 47.4163 20.3949 47.4141H32.995C34.1276 47.4172 35.2496 47.1955 36.296 46.7619C37.3423 46.3283 38.2922 45.6915 39.0908 44.8882L48.8564 35.1235C49.2195 34.7604 49.5075 34.3294 49.7041 33.855C49.9006 33.3807 50.0017 32.8722 50.0017 32.3588C50.0017 31.8453 49.9006 31.3369 49.7041 30.8625C49.5075 30.3882 49.2195 29.9571 48.8564 29.5941ZM14.6569 53.0918L2.08258 40.5175L4.31192 38.2882L16.8862 50.8624L14.6569 53.0918ZM47.6374 33.9045L37.8727 43.6701C37.2336 44.3126 36.4734 44.822 35.6362 45.1687C34.7989 45.5154 33.9012 45.6926 32.995 45.69H20.3957C19.8296 45.6884 19.2687 45.7992 18.7456 46.0158C18.2225 46.2324 17.7476 46.5507 17.3483 46.9521L16.381 47.9193L7.25506 38.7933L11.0129 35.0355C11.7887 34.2599 12.7198 33.6572 13.7452 33.2671C14.7705 32.877 15.8668 32.7084 16.962 32.7722C18.0571 32.836 19.1264 33.1309 20.0995 33.6375C21.0726 34.1441 21.9274 34.8509 22.6078 35.7114L22.7406 35.8795C22.8213 35.9817 22.9241 36.0642 23.0414 36.121C23.1586 36.1777 23.2871 36.2072 23.4173 36.2071H33.6226C34.0799 36.2071 34.5184 36.3888 34.8418 36.7121C35.1651 37.0354 35.3468 37.474 35.3468 37.9313C35.3468 38.3885 35.1651 38.8271 34.8418 39.1504C34.5184 39.4738 34.0799 39.6554 33.6226 39.6554H21.5535C21.3249 39.6554 21.1056 39.7462 20.9439 39.9079C20.7822 40.0696 20.6914 40.2889 20.6914 40.5175C20.6914 40.7461 20.7822 40.9654 20.9439 41.1271C21.1056 41.2888 21.3249 41.3796 21.5535 41.3796H33.6226C34.4659 41.3768 35.2788 41.0644 35.907 40.5019C36.5351 39.9393 36.9349 39.1657 37.0304 38.3278L44.546 30.8131C44.9624 30.4154 45.516 30.1935 46.0917 30.1935C46.6675 30.1935 47.2211 30.4154 47.6374 30.8131C48.0473 31.2231 48.2776 31.7791 48.2776 32.3588C48.2776 32.9385 48.0473 33.4945 47.6374 33.9045Z" fill="#FF5A3C"/>
<path d="M14.4361 17.5672C14.4241 17.5845 14.406 17.5931 14.3948 17.6112C14.3922 17.6164 14.3922 17.6215 14.3896 17.6258C11.7676 20.956 10.3433 25.072 10.3464 29.3105C10.3464 29.4518 10.3473 29.5915 10.3568 29.7329C10.3721 29.9505 10.4692 30.1542 10.6287 30.3029C10.7882 30.4517 10.9982 30.5345 11.2163 30.5346C11.2361 30.5346 11.2568 30.5338 11.2766 30.532C11.5045 30.5161 11.7168 30.4104 11.8668 30.2381C12.0168 30.0658 12.0923 29.841 12.0766 29.6131C12.0706 29.5113 12.0706 29.4113 12.0706 29.3105C12.0714 25.687 13.2213 22.1571 15.3551 19.2285C17.7931 20.8207 19.2198 22.3578 19.2784 23.5044C19.1882 24.5941 18.844 25.6476 18.2733 26.5803C18.0022 27.1283 17.7469 27.684 17.5077 28.2467C17.4609 28.3517 17.4356 28.4651 17.4333 28.5801C17.431 28.695 17.4517 28.8093 17.4942 28.9162C17.5368 29.0231 17.6002 29.1203 17.6809 29.2023C17.7616 29.2842 17.8579 29.3492 17.9641 29.3934C18.0703 29.4376 18.1842 29.46 18.2992 29.4595C18.4142 29.459 18.528 29.4354 18.6337 29.3903C18.7395 29.3451 18.8352 29.2792 18.9151 29.1965C18.995 29.1138 19.0576 29.016 19.0991 28.9087C19.3319 28.3501 19.5853 27.8277 19.8259 27.3311C20.5412 26.1449 20.9451 24.7971 21 23.413C20.9112 21.6742 19.3672 19.8147 16.4396 17.8802C17.7596 16.3858 19.3274 15.1303 21.0742 14.1689C22.7526 17.4414 24.7733 19.1681 26.9794 19.1681C27.1398 19.1682 27.3001 19.1593 27.4596 19.1414C28.9882 19.0441 30.4471 18.467 31.6286 17.4922C32.3872 16.906 32.7019 16.6629 34.4415 17.2707C36.0674 17.8371 37.7804 17.1276 39.3321 15.2862C40.6758 16.2487 41.8743 17.3992 42.8908 18.7026C41.853 19.8108 41.0364 21.107 40.4847 22.5216C39.7494 24.1268 39.252 25.1165 38.3381 25.2018C37.7441 25.2387 37.1482 25.2361 36.5545 25.194C34.2803 25.082 31.451 24.9492 29.4303 28.9225C28.9721 29.8176 28.6643 30.7819 28.5191 31.7769C28.5032 31.889 28.5097 32.0032 28.538 32.1128C28.5663 32.2225 28.6159 32.3255 28.684 32.4159C28.7522 32.5064 28.8375 32.5826 28.935 32.6401C29.0326 32.6976 29.1405 32.7353 29.2527 32.751C29.2927 32.7565 29.333 32.7591 29.3734 32.7588C29.5812 32.7587 29.782 32.6836 29.9389 32.5472C30.0957 32.4108 30.198 32.2223 30.2268 32.0165C30.3439 31.2092 30.5944 30.4269 30.9682 29.7018C32.482 26.7251 34.2441 26.813 36.4726 26.9165C37.1465 26.9637 37.8228 26.9645 38.4968 26.9191C40.452 26.7346 41.2658 24.9578 42.052 23.2397C42.4975 22.1122 43.1216 21.0637 43.9003 20.1345C45.0534 21.9591 45.8505 23.9857 46.2494 26.107C46.2696 26.2188 46.3117 26.3256 46.3733 26.4211C46.4349 26.5167 46.5147 26.5991 46.6083 26.6636C46.7018 26.7282 46.8072 26.7736 46.9184 26.7973C47.0296 26.8209 47.1443 26.8224 47.2561 26.8015C47.3678 26.7806 47.4743 26.7379 47.5694 26.6757C47.6646 26.6136 47.7465 26.5332 47.8105 26.4392C47.8744 26.3453 47.9192 26.2396 47.9421 26.1283C47.9651 26.017 47.9658 25.9022 47.9443 25.7906C47.151 21.596 44.9645 17.7922 41.7393 14.9955C38.514 12.1988 34.4389 10.5731 30.1743 10.3818V9.43092C30.1744 8.94813 30.3103 8.4751 30.5663 8.06582C30.8224 7.65654 31.1884 7.3275 31.6225 7.11624C32.1022 7.67516 32.6969 8.12383 33.366 8.43154C34.0351 8.73924 34.7628 8.89871 35.4993 8.89902C36.1977 8.89297 36.89 8.7685 37.5468 8.53091C38.6461 8.14598 39.6888 7.61507 40.6468 6.95245C41.0616 6.58019 41.572 6.33083 42.1206 6.23231C42.6692 6.13379 43.2344 6.19002 43.7529 6.39468C43.9276 6.43986 44.1122 6.42903 44.2804 6.36374C44.4487 6.29844 44.5923 6.18197 44.6908 6.03075C44.7894 5.87953 44.838 5.70119 44.8298 5.52087C44.8216 5.34055 44.757 5.16735 44.6451 5.0257C44.4589 4.79035 40.0701 -0.707124 35.845 0.0782295C31.7665 0.838583 31.2889 3.31189 31.0898 5.4576C30.3826 5.75716 29.7687 6.24093 29.3122 6.85848C28.8557 6.24061 28.2418 5.75654 27.5346 5.45674C27.3354 3.31189 26.8578 0.838583 22.7793 0.0773675C18.5534 -0.713159 14.1646 4.79035 13.9792 5.0257C13.8677 5.16738 13.8034 5.34046 13.7954 5.5206C13.7874 5.70073 13.836 5.87885 13.9345 6.02988C14.033 6.18091 14.1764 6.29726 14.3445 6.36254C14.5126 6.42783 14.6969 6.43877 14.8715 6.39382C15.3899 6.18906 15.9552 6.13278 16.5038 6.2313C17.0524 6.32982 17.5628 6.57924 17.9776 6.95159C18.9355 7.61421 19.9782 8.14512 21.0776 8.53005C21.7343 8.76787 22.4266 8.89234 23.125 8.89816C23.8615 8.89779 24.5892 8.73829 25.2583 8.43059C25.9274 8.12289 26.5222 7.67425 27.0018 7.11538C27.4361 7.3267 27.8021 7.65587 28.0582 8.06532C28.3143 8.47477 28.4501 8.94798 28.4501 9.43092V10.3671C25.7338 10.489 23.0757 11.1954 20.6572 12.4382C18.2387 13.6809 16.1168 15.4298 14.4361 17.5672ZM36.1605 1.77308C38.0493 1.4179 40.3071 3.05757 41.8451 4.52656C41.0658 4.68846 40.3331 5.02442 39.702 5.50933C38.8604 6.09474 37.9435 6.56338 36.9761 6.90245C36.3794 7.1629 35.7222 7.25276 35.0775 7.16206C34.4328 7.07135 33.8259 6.80363 33.3243 6.38865L35.6028 5.43174C35.7107 5.39049 35.8093 5.32796 35.8926 5.24785C35.976 5.16774 36.0423 5.07169 36.0878 4.96542C36.1332 4.85915 36.1568 4.74482 36.1572 4.62924C36.1576 4.51366 36.1347 4.39918 36.09 4.29262C36.0452 4.18605 35.9795 4.08957 35.8967 4.00892C35.8139 3.92827 35.7157 3.86509 35.608 3.82313C35.5003 3.78118 35.3853 3.76132 35.2698 3.76472C35.1542 3.76812 35.0406 3.79471 34.9355 3.84293L32.9165 4.69035C33.1562 3.2162 33.7614 2.2205 36.1605 1.77308ZM21.6483 6.90245C20.6809 6.56365 19.764 6.0953 18.9224 5.51019C18.291 5.02418 17.5577 4.68758 16.7775 4.5257C18.312 3.05671 20.5638 1.41876 22.4647 1.77221C24.8638 2.21963 25.469 3.21534 25.7087 4.68949L23.6897 3.84207C23.585 3.79664 23.4724 3.77244 23.3583 3.77086C23.2443 3.76929 23.131 3.79037 23.0251 3.83289C22.9193 3.87542 22.8229 3.93853 22.7416 4.01858C22.6603 4.09862 22.5957 4.19401 22.5515 4.29921C22.5074 4.40441 22.4846 4.51732 22.4844 4.63141C22.4842 4.7455 22.5066 4.85849 22.5504 4.96384C22.5942 5.06919 22.6585 5.16479 22.7395 5.24511C22.8206 5.32543 22.9167 5.38886 23.0225 5.43174L25.3009 6.38865C24.799 6.80313 24.1921 7.07047 23.5475 7.16101C22.9029 7.25156 22.2458 7.16176 21.6492 6.90158L21.6483 6.90245ZM35.0105 15.6431C32.5708 14.7913 31.6691 15.2819 30.5734 16.1284C29.6411 16.9069 28.4819 17.3627 27.2691 17.4276C25.2259 17.6612 23.5828 15.2931 22.6155 13.4232C25.0586 12.3933 27.7062 11.9407 30.3527 12.1005C32.9991 12.2603 35.573 13.0283 37.8743 14.3448C37.1269 15.1853 36.0735 16.0138 35.0105 15.6431Z" fill="#FF5A3C"/>
</svg>
